<svg xmlns="http://www.w3.org/2000/svg" width="24" height="15.372"><defs><style>.b{fill:#01a99f}</style></defs><path fill="none" stroke="#01a99f" stroke-miterlimit="10" stroke-width=".75" d="M0 11.805h19.474"/><path class="b" d="M24 11.805a22.666 22.666 0 00-6.41 3.567l1.29-3.567-1.29-3.566A22.647 22.647 0 0024 11.805zM4.894 7.537c-.634.836-1.258 1.188-1.637 1.188-.36 0-.441-.38-.25-1.397l.117-.624a6.42 6.42 0 01-1.262 1.467 1.724 1.724 0 01-1.111.554C.293 8.725 0 8.19 0 7.387a4.342 4.342 0 011.313-3.053 3.615 3.615 0 012.241-.95 6.817 6.817 0 011.287.2c-.235.846-.552 2.36-.829 3.861-.06.324-.024.445.092.445.121 0 .342-.13.697-.505zm-2.178-.63a3.56 3.56 0 00.609-1.29c.127-.494.298-1.326.355-1.657a1.881 1.881 0 00-.85-.168c-1.1 0-1.667 2.001-1.667 3.339 0 .594.172.787.356.787.297 0 .672-.28 1.197-1.012zM6.332.422A7.771 7.771 0 007.886.095 1.608 1.608 0 018.26 0c.083 0 .084.122.023.393-.362 1.567-.71 3.132-1.058 4.697a4.015 4.015 0 012.392-1.705c.538 0 .806.498.806 1.262a4.456 4.456 0 01-1.748 3.396 3.291 3.291 0 01-1.797.682 1.037 1.037 0 01-.892-.423 1.984 1.984 0 01-.126-1.57c.313-1.766.748-3.537 1.097-5.332.132-.678.041-.75-.458-.806C6.406.582 6.393.582 6.293.57zm2.929 4.484c0-.5-.113-.826-.417-.826-.295 0-.795.33-1.355 1.049a3.64 3.64 0 00-.611 1.663c-.192 1.2.2 1.53.611 1.53 1.226 0 1.772-2.402 1.772-3.416zM14.678 7.416a3.114 3.114 0 01-2.245 1.309c-.76 0-1.278-.588-1.278-1.69a3.98 3.98 0 011.159-2.795 3.095 3.095 0 011.835-.855c.48 0 .842.22.846.527a.73.73 0 01-.38.593c-.152.088-.26.047-.355-.109-.242-.379-.467-.576-.796-.576-.616 0-1.15 1.225-1.15 2.9 0 .946.36 1.328.833 1.328a2.145 2.145 0 001.447-.795z"/></svg>
