<svg xmlns="http://www.w3.org/2000/svg" width="24" height="15.3716" viewBox="0 0 24 15.3716"><defs><style>.a{fill:none;stroke:#01a99f;stroke-miterlimit:10;stroke-width:0.75px;}.b{fill:#01a99f;}</style></defs><title>cba</title><line class="a" x1="4.5264" y1="11.8047" x2="24" y2="11.8047"/><path class="b" d="M0,11.8047a22.6672,22.6672,0,0,1,6.4105,3.5669L5.12,11.8047l1.29-3.5662A22.6483,22.6483,0,0,1,0,11.8047Z"/><path class="b" d="M13.8993,7.5371c-.6338.8359-1.2578,1.1875-1.6367,1.1875-.36,0-.4414-.3789-.2491-1.3965l.1163-.624A6.4306,6.4306,0,0,1,10.868,8.1709a1.7253,1.7253,0,0,1-1.1123.5537c-.458,0-.75-.5332-.75-1.3379A4.3421,4.3421,0,0,1,10.3192,4.334,3.615,3.615,0,0,1,12.56,3.3848a6.83,6.83,0,0,1,1.2871.1992c-.2343.8457-.5527,2.36-.8291,3.8613-.0595.3242-.0234.4443.0918.4443.1211,0,.3418-.13.6973-.5048Zm-2.1777-.6309a3.5448,3.5448,0,0,0,.6084-1.289c.1279-.4942.2988-1.3262.3554-1.6572a1.8837,1.8837,0,0,0-.85-.168c-1.1,0-1.668,2.001-1.668,3.3389,0,.5937.1729.7871.3565.7871C10.8212,7.918,11.1962,7.6387,11.7216,6.9062Z"/><path class="b" d="M15.3378.4224A7.7615,7.7615,0,0,0,16.8905.0952,1.6318,1.6318,0,0,1,17.2645,0c.084,0,.084.1221.0244.3931C16.9266,1.96,16.578,3.5254,16.23,5.09a4.0157,4.0157,0,0,1,2.3926-1.705c.5371,0,.8047.498.8047,1.2617A4.4529,4.4529,0,0,1,17.68,8.043a3.2863,3.2863,0,0,1-1.7959.6816,1.04,1.04,0,0,1-.8926-.4228,1.9876,1.9876,0,0,1-.125-1.5694c.3115-1.7666.748-3.5371,1.0967-5.3325.1318-.6782.041-.75-.458-.8057C15.412.582,15.3983.582,15.2977.57Zm2.9277,4.4838c0-.5-.1113-.8261-.416-.8261-.2959,0-.7959.3291-1.3545,1.0488a3.6187,3.6187,0,0,0-.6113,1.6631c-.1924,1.2.1982,1.5293.61,1.5293C17.7206,8.3213,18.2655,5.92,18.2655,4.9062Z"/><path class="b" d="M23.6825,7.416a3.114,3.114,0,0,1-2.2451,1.3086c-.7578,0-1.2774-.5879-1.2774-1.6894A3.98,3.98,0,0,1,21.3182,4.24a3.0947,3.0947,0,0,1,1.836-.8554c.48,0,.8418.2207.8457.5273a.7273.7273,0,0,1-.3809.5928c-.1514.0879-.2588.0478-.3545-.1084-.2422-.3789-.4668-.5762-.7959-.5762-.6162,0-1.15,1.2246-1.15,2.8994,0,.9463.3594,1.3282.833,1.3282a2.14,2.14,0,0,0,1.4473-.795Z"/></svg>